<svg version="1" xmlns="http://www.w3.org/2000/svg" width="1066.667" height="1066.667" viewBox="0 0 800.000000 800.000000"><path d="M590 58.4c-4.1 1.3-10.6 3.5-14.5 5.1-3.8 1.5-13.3 4.4-21 6.5-42.5 11.6-71.6 23.5-95.6 39.1l-10.5 6.9-8.5-1.5c-16.2-2.9-43.3-1.5-60.4 3-10 2.7-8.6 3.1-39-10.8-6.6-3-16.5-7.1-22-9.1l-10-3.7-38 7.6c-20.9 4.2-42.9 8.8-49 10.1-6 1.4-15.7 3.4-21.5 4.5-20 3.6-20.1 3.7-23.7 10.4-4.1 7.9-4.3 8.1-10.5 9.5-2.9.7-5.8 1.9-6.4 2.6-1 1.2-2.4 1.3-7.5.5-17.4-2.6-38.5-4.3-41.2-3.2-7 2.7-8.2 17.2-4.3 52.1 1.5 12.9 2.9 24.2 3.1 25 .3.8.9 4.8 1.5 8.9l1 7.4-5.6 14.1c-3.1 7.7-11.3 25.6-18.1 39.6-17.6 35.9-42.8 91.5-51.8 114-7.4 18.4-7.5 19.1-6 21.9 1.6 3.2 1.5 3.5-3.9 16.3-1.3 2.9-1.3 3.9-.3 5 .6.7 2 3.1 3 5.3 1.7 3.5 8.3 15 23.7 41 10.9 18.4 20.1 33.2 22.2 35.6 2.2 2.5 13 7.1 34.8 14.7 15.8 5.6 32.6 12 48.1 18.5 8.5 3.6 18.6 7.7 22.5 9.1 11.9 4.4 11.4 2.7 6.1 21.7-2.5 9-6.6 24.3-9.1 33.9-4.8 18.6-26.1 86.8-34.6 111-2.8 7.9-6.6 20.2-8.5 27.3-3.6 13.7-5.6 17.7-13.6 27.2-2.8 3.3-6.4 7.9-8 10.2l-3 4.3h145.2l-1.5-2.8c-1.4-2.9-7.4-20.8-10.1-30.4-.9-3.2-2.1-5.8-2.7-5.8-.5 0-.7-1.2-.3-2.9.4-2.1 0-3.5-1.8-5.7-3.6-4.3-8.7-12.6-8.7-14.2 0-.7 2.3-3.7 5.1-6.7 5.9-6.2 5.7-3.4 1.8-29.5-1.9-13-2.3-19.5-2.2-40 0-24.2.8-34.7 4-52.8l1.6-9.2 11.1-5.5c9.6-4.7 30.4-12.5 33.3-12.5.6 0 1.1 4.1 1.1 9.7.1 11.8.6 14.2 4.4 21.6 5 10 13.7 16.8 25.3 19.6 11.2 2.8 15.9 3 26.2 1 5.4-1 9.8-1.9 9.9-1.9.1 0 .4 7.5.7 16.8 1 28.8 2.7 50.8 5.2 70.8 3 23.4 4 27.9 7.1 30.3 2.8 2.2 3.1 4.7.8 7.2-2.1 2.4-2.1 6.9 0 8.1 1.4.8 1.5 1.3.5 2.4-.7.9-.9 3.2-.6 6.2.9 8.2 3.6 24.3 4.2 25.3.4.5 12.8.9 29.5.9h28.8l.4-4.7c.4-5-.7-9.2-2.9-10.6-1.7-1.1-1.7-8.7 0-8.7.9 0 .8-.3-.2-.9-.7-.5-1.1-1.4-.7-1.9 1.1-1.8-.4-6.1-1.9-5.6-.9.4-1.2 0-.8-1.4.2-1.1-.5-4.1-1.8-6.8-1.9-4.3-2.3-4.6-3.1-2.9-.6 1.4-.6.8-.3-1.8.5-2.9.3-3.7-1-3.7-.8 0-1.5-.5-1.5-1 0-2-6.5-15-7.5-15-.6 0-1.7-1.5-2.4-3.2-1.9-4.2-10.8-13.1-12.2-12.2-1.5.9-5.9-1.6-5.9-3.3 0-1.1.5-1.1 2.9.2l2.9 1.5-1.6-3.3c-.8-1.7-2.6-4.3-3.9-5.6-1.3-1.4-2.2-3-1.9-3.7.2-.6-.1-1.7-.7-2.4-3.7-4.1 6 4.1 12.8 10.7 15.3 14.8 22.4 25.7 30.1 45.8 1.4 3.8 3.5 7.7 4.7 8.6 1.8 1.5 1.9 2.3 1.2 10.5-.4 4.9-1.3 10.1-2.1 11.6s-1.4 4.3-1.4 6.3v3.5h73l-1.5-2.4c-1.9-2.9-1.3-4.6 2.4-6.8 5-2.8 6.8-13.4 3.1-18.1-1.1-1.4-2-3-2-3.5 0-.6 2.3-1.8 5.1-2.8 2.7-1 5.4-2.3 5.9-2.9 1.2-1.4 4.2-18.2 8.9-49.5 5.4-35.8 5.6-38.1 9.4-97.5l.2-3.9 6.2-.2c6.1-.3 7.9-.8 20-6.5 6.7-3.2 9.3-6.5 15.3-18.9 2.9-6.1 3-6.9 2.4-14.6l-.6-8.1 5.8-.6c11.8-1.3 38.7-.9 49.4.8 5.7.9 10.6 1.7 10.7 1.9 1.3 1.3 2.6 21.2 2.7 40.6.1 23-1 41.9-4 71-1.4 14.2-6 48.3-7.1 52.7-.4 1.7.3 2.7 3.1 4.5 2 1.3 3.6 2.5 3.5 2.8 0 .3-2 2-4.4 3.9-5 4-5.8 5.9-3.9 9.7 1.8 3.3 1.8 4.8-.1 8.3-.8 1.6-2.6 8.2-4.1 14.7-1.4 6.6-4 14.9-5.8 18.6l-3.2 6.8h78.3c43.1 0 78.3-.2 78.3-.5s-2.1-3.3-4.6-6.7c-10.5-14.3-23.1-46-32.9-82.8-8.9-33.5-28.6-92.3-44.5-132.8l-7.1-18.2 11.9-24.3c13.3-26.8 14.8-30.7 13.3-33.5-.5-1-5.2-3.5-10.8-5.7-5.4-2.1-19.7-8-31.8-13-12.1-5.1-22.5-9.4-23.1-9.6-.6-.2-5.7-7.2-11.2-15.4-5.8-8.8-13.6-18.9-18.8-24.4-5-5.2-9.4-11-10.1-13-1.3-3.4-1.2-3.7 1.4-5.6 9.6-7 11.7-12.4 6.9-17.4l-2.5-2.6 3.6-8c5.6-12.7 6.4-16.1 7-30.5.5-12.3.7-13.8 3-17.2l2.5-3.7-2.6-5.1c-1.6-3-2.6-6.6-2.6-9.2-.1-9.9-7.3-43.7-13.5-62.8-2.7-8.4-2.9-16.7-.6-27.2 1.1-5.3 2.5-16.1 3-24 .6-7.9 1.4-15.7 1.9-17.4.7-2.2.6-4-.4-6.3-.8-1.8-1.1-3.7-.8-4.2 1.3-2.2 3.5-54.1 2.9-68.6-1-24.5-4.1-47.2-7.1-52.1-1.9-2.9-8.3-2.9-18.4.2zm14.5 4.8c2.1 9.4 2.8 14 4 26.8 1.7 16.6 1.9 43.8.5 49-.8 3-1.8 42.8-1.1 47 .3 2.2-2.7 32.4-4 39.3-1 6-2.7 11.2-2.8 8.9-.1-2.2-4.1-7.2-5.7-7.2-2.9 0-2.6 3.1.9 9.8 3.8 7.3 6.7 16 6.7 20.3 0 1.4.6 3.2 1.3 3.8.8.6 1.9 3.7 2.6 6.8.7 3.2 2.3 9.4 3.6 13.8 2.7 9.5 7.5 37.4 7.5 43.8 0 3.1.6 4.9 2 6.2 2.5 2.2 2.5 3.7.2 5.9-1.6 1.4-2 3.8-2.6 15.4-.3 7.5-1.2 15.9-2 18.7-1.4 5.1-7.3 19.3-8.8 21-1.5 1.7-.8 3.9 2.5 7.3l3.2 3.3-3.1 2.7c-1.6 1.5-5.1 4.2-7.7 5.9-5 3.5-6 6.4-2.9 8.2 2 1.2 2.3.9-12.3 12-15.9 12.1-33.3 32.2-48 55.6-7.6 12.1-19.4 35.7-20.1 40.4-.5 3.1-1.3 4.1-5 6.1-2.5 1.3-6.9 5-9.9 8.2-7.2 7.7-9.9 16-10 29.9v9.7l-5.5 3.5c-12.6 8.1-34.4 17.6-48.8 21.2-6.1 1.6-6.4 1.6-14.7-1-8.3-2.5-22.7-8.4-39.8-16.4-9.4-4.3-8.9-3.7-13.2-15.6-1.3-3.8-3.9-7-10.4-13.5-6.6-6.5-9.5-10.2-11.8-15.3-1.8-3.6-6.3-11.1-10.2-16.6-13.1-18.5-27.7-28.1-62.3-41-17.8-6.6-30.9-9.8-45.9-11.3-12.3-1.2-12.5-1.3-18.9-5.7-3.6-2.5-9.4-6.5-13-8.8-3.5-2.4-6.8-5-7.3-5.9-1.2-2.1 2.8-6.4 5.9-6.4 1.3 0 2.8-.9 3.3-1.9.9-1.6 0-3.2-4.8-9.2-9.7-12.3-18.4-27.7-23.4-41.5-3.2-9-7.6-31.7-8.7-45.4-.5-5.8-.6-15.9-.3-22.6.6-12.4 0-15-3.1-12.5-1.5 1.3-2.3 4.6-3.1 13.6-.7 6.8-.7 6.8-2.8 5.9-1.1-.4-1.5-1.8-1.4-4.8.2-4.9-1.1-6.9-5.8-9.2-3.1-1.5-3.3-1.8-4.4-10.2-1.4-11.5-3.5-19.1-7.6-28.2-4.3-9.7-14.7-42.7-17.9-57.2-2.7-12.2-8.6-57.1-8.6-65.3 0-6.4 1.8-17.7 3.1-19 1.1-1.1 31.6 1.7 49.4 4.6 11.4 1.8 28.8 5.6 54.8 12 9.4 2.3 26.7 8.6 28.6 10.4.2.2-1.5 3.2-3.8 6.7-4.3 6.6-5 9.2-2.8 10.1 1.9.7 2.6.1 8-6.9 12.3-16.2 34.8-30.1 64.2-39.7 13.6-4.5 25.8-6.1 39.4-5.4l10.3.6-.4-2.4c-.5-2.1 0-2.6 4.1-3.9 9-3 29.7-7.6 38.6-8.6 18-2 36-.4 49.7 4.5 9.4 3.4 12.4 4 13.2 2.6 1.4-2.2-.5-4.9-4.4-6.5-2.2-.9-4-1.8-4-2 0-1.2 19.5-12.5 32.1-18.5 18.6-8.9 45.9-18.4 70-24.2 4.2-1 12.2-3.6 17.9-5.9 10-4 21.8-7.7 25.2-7.9 1.1-.1 2 .8 2.3 2.1zm-309.7 54.5c-2.4 4.9-3.3 6.3-4.5 6.7-.7.3-14.9 2.8-31.4 5.6-16.6 2.8-34.5 5.9-39.8 7-5.3 1-14.1 2.6-19.6 3.4-5.5.9-11.3 1.9-13 2.4-3.3.9-15.1-1.1-12.5-2.1.8-.3 7.1-1.7 14-3.1 6.9-1.4 25.6-5.2 41.5-8.6 16-3.3 36.9-7.4 46.5-8.9 21-3.5 19.2-3.3 18.8-2.4zM278 145.5c-.7.8-1.6 1.5-2.1 1.5-1.1 0-17 10.2-22 14.1l-3.5 2.8-9.7-4.5c-5.4-2.4-11.1-4.7-12.7-5.1-1.7-.3-3-.9-3-1.2 0-.4 9.6-2.2 21.3-4 11.6-1.8 22.8-3.6 24.7-4.1 1.9-.4 4.6-.8 5.9-.9 2-.1 2.1.1 1.1 1.4zM122 264.7c0 .7-1.5 3.7-3.4 6.6-5.7 8.8-7.1 14.6-7.1 28.2 0 13.1.6 15.1 6.7 22 5.1 5.9 13.5 8.1 20.4 5.5 1.9-.8 3.5-.7 5.6.2 2.7 1.2 2.9 1.7 2.6 6.2-.2 5.3.8 6.6 6.8 8.8l3.1 1.1.7 11.4.7 11.3-3.7 9.3c-5.3 13.4-25.4 52.9-39.8 78.2-14.9 26.3-14.2 25.1-14.9 24.5-.2-.3-7.7-11.3-16.4-24.5-14.4-21.6-25.7-40.1-34.9-57l-3.3-6 4.3-10c4.5-10.4 8.3-18.7 26-56.8 1.8-3.9 4.4-9.5 5.6-12.2 1.2-2.8 6.4-13.4 11.6-23.6 7.8-15.6 12.8-26.7 20.7-45.9.9-2.2 1.4-1.3 4.8 9.5 2.2 6.6 3.9 12.6 3.9 13.2zm7.4 18.7c3.1 8.5 3.7 11.1 3.1 14.5-.4 2.3-1 3.9-1.3 3.7-.4-.2-1.6.2-2.7 1-1.7 1.3-1.8 1.6-.5 2.4 2.1 1.3 3.3 1.2 2.4-.2-.5-.7-.2-.9.8-.5.9.3 2 .1 2.6-.5.7-.7 1.2-.3 1.7 1.2 1.8 5.6-2.6 9.4-10.1 8.8-3.1-.2-4.2-.9-5.8-3.8-3.7-6.2-2.3-23.6 2.6-33.3 1-2 2.2-3.7 2.6-3.7.4 0 2.4 4.7 4.6 10.4zm-88 136.8c2.1 4 6.7 11.6 10.1 16.8 3.4 5.2 7.5 12 9.1 15 1.5 3 8.9 14.6 16.3 25.7 11.5 17.4 13.3 20.6 12.4 22.5-.9 2-1.1 1.8-4-2.8-1.7-2.7-9-14.1-16.3-25.4-7.3-11.3-16.1-25.5-19.5-31.5-3.5-6.1-8.1-14.1-10.3-17.9-3.6-6-4.4-9.6-2.3-9.6.4 0 2.4 3.3 4.5 7.2zm137.6 7.9c0-.8.3-1.2.6-.9.9.9-1.5 4.8-2.9 4.8-.9 0-.9-.2.1-.8.7-.5 1-1.7.6-2.8-.5-1.6-.4-1.6.5-.4.9 1.2 1.1 1.3 1.1.1zm6.7 12.1c-.3.8-.6.5-.6-.6-.1-1.1.2-1.7.5-1.3.3.3.4 1.2.1 1.9zm.3 5.3c0 .5-.5.3-1-.5s-1-2-1-2.5c0-.6.5-.3 1 .5s1 1.9 1 2.5zm22.7 33.1c-.3.3-1.2.4-1.9.1-.8-.3-.5-.6.6-.6 1.1-.1 1.7.2 1.3.5zm454.8 8c6.1 2.5 15 6.1 19.8 8 4.9 1.9 9.6 3.9 10.5 4.4 1 .5 3.9 1.8 6.6 2.9 4.4 1.9 4.8 2.3 4.2 4.8-1.1 4.7-20.9 43.9-21.4 42.3-2.8-9.4-20.9-48.6-28.1-60.8-2.9-4.9-3.5-6.2-2.8-6.2.1 0 5.2 2.1 11.2 4.6zm-460.8 3.6c-.3.8-.6.5-.6-.6-.1-1.1.2-1.7.5-1.3.3.3.4 1.2.1 1.9zm-70-.6c-.3.3-1.2.4-1.9.1-.8-.3-.5-.6.6-.6 1.1-.1 1.7.2 1.3.5zm57 26c-.3.3-1.2.4-1.9.1-.8-.3-.5-.6.6-.6 1.1-.1 1.7.2 1.3.5zM544 538c.6 1.1 2 2 3.1 2s2.2.6 2.5 1.3c.3.8 1.9 1.4 3.7 1.5 2.3.1 2.7-.2 1.7-.8-1.7-1.1-.9-1.3 1.4-.4 2.6 1 1.8 2.2-1.4 2-1.6-.1-3.2.3-3.5.8-.3.7-.7.7-1.1-.2-.3-.6-1.3-1.2-2.2-1.2-1.5 0-1.5-.2-.2-1 1.2-.8 1-1-.9-1-1.3 0-2.1.3-1.8.7.4.3-.1 1.2-1.1 1.9-1.5 1.2-1.3 1.4 1.8 1.5 3.3.1 3.3.2-1 .9-2.5.5-5.6.6-7 .3-2-.4-2.2-.3-1 .7 1 .8 1.1 1 .2.8-2.5-.7-.7-2.3 2.3-2 2.3.2 2.6 0 1.5-.8-1.3-.9-1.3-1 0-1.1 1 0 .9-.3-.5-1-1.7-.8-1.5-.8.8-.4 2.3.5 2.7.2 2.7-1.6 0-1.9-.4-2-5.2-1.4-6.5.9-8 2-3.7 2.9 5.7 1.1 2.3 2-10.3 2.5-1.1.1-1.5.6-1.2 1.6.7 1.8-.7 2-2.4.3-.9-.9-1.2-.7-1.2 1 0 1.2.5 2.2 1.2 2.2.6 0 .8.3.5.6-.4.4-1.3.1-2.1-.6-1.3-1-2-.8-4.1.8-1.7 1.3-2.1 2.2-1.3 2.5 1 .3.8.9-.5 2.3-1.8 1.9-1.8 1.9-1.1-.1.4-1.4-.1-1.2-2 1-2.8 3.3-5 8.8-4.3 10.8.2.6 1.3-.9 2.4-3.4 2.1-4.7 4.3-7.1 4.3-4.7 0 .7.9 0 2-1.7 1.7-2.6 8-5.9 6.4-3.4-.3.5-1.1.9-1.9.9-.7 0-2.3 1.4-3.5 3-1.2 1.7-2.6 2.8-3 2.5-.5-.3-1.6.9-2.3 2.8-.8 1.8-2.6 5.2-4.1 7.5-2.5 4.1-3.5 10.2-1.7 10.2.6 0 1.2 1.7 1.4 3.7.3 3.2.5 3.5 1.1 1.6.5-1.4 1.3-2 2.4-1.6 1 .4 1.3.2.8-.5-.4-.7-.2-1.2.3-1.2.6 0 1.1 1.1 1.1 2.5 0 1.6-.6 2.5-1.5 2.5-.8 0-1.5.4-1.5 1 0 .5-.7.7-1.5.4-.9-.4-1.5 0-1.5 1 0 2.5-1.8 1.9-3.4-1.3-2.6-5-3.8-15.7-2.6-23.4 1.4-9.4 4.3-15.6 9.3-20.4 7.3-6.9 13.4-9.1 25.4-9.2 7.2-.1 8.4.1 9.3 1.9zm-11.5 8.6c-1.1.8-2.5 1.2-3.2 1-.6-.3-1.4.2-1.6 1-.3 1-.4.9-.3-.3 0-.9 1.2-2 2.6-2.4 4-1.1 4.6-.9 2.5.7zm19.2 2.2c0 2.7-.2 2.7-1.7 1.3-1.6-1.4-1.6-1.7-.2-2.9.9-.6 1.6-1.2 1.7-1.2.1 0 .2 1.3.2 2.8zm-6.3-.3c-.4.8-.9 1.5-1.3 1.5s-.8-.7-.8-1.5.6-1.5 1.3-1.5c.8 0 1.1.6.8 1.5zm18.2 2.8c-.6 1.5-1.2 2.3-1.4 1.7-.6-1.8-1.7-1.1-3.1 2.1-.7 1.6-1.5 2.8-1.7 2.6-.2-.2.5-2.4 1.5-4.8 1.4-3 2.6-4.5 3.9-4.5 1.6 0 1.7.4.8 2.9zm-14.5.4c1.3 1.7 1.3 1.7-.6.3-1.1-.8-2.2-1.6-2.4-1.7-.2-.2 0-.3.6-.3s1.7.8 2.4 1.7zm-30.8 1c-.7.2-1.9.2-2.5 0-.7-.3-.2-.5 1.2-.5s1.9.2 1.3.5zm38.7.8c-.7.9-1.5 1.3-1.7 1.1-.7-.7.7-2.6 1.9-2.6.6 0 .6.6-.2 1.5zm-216.6 1.1c3.1 1.2 1.5 1.9-5.1 2.2-3.7.1-7.2.7-7.7 1.2-.6.6-2.2 1-3.7 1-1.4 0-3.8.9-5.2 2-1.4 1.1-3 2-3.6 2-.5 0-.8 1.3-.6 3 .2 1.6-.1 3-.6 3s-.9-1-.9-2.3c0-1.7-.2-1.9-.9-.7-.6.8-.7 1.8-.5 2.2.3.4.1.8-.5.8-.5 0-1.1-.6-1.4-1.3-.5-1.4-4.6 3-4.7 5.1 0 .7-.4 1-1 .7-.6-.4-.7.1-.3 1.1.5 1.4 1 1 2.7-1.9 2.1-3.6 4.4-5.2 3.2-2.2-.3.8-.1 1.5.4 1.5.6 0 1-.5 1-1 0-.6.5-1 1.2-1 .6 0 .3.9-.8 2.1-1.1 1.2-2 1.6-2.2.9-.5-1.5-3.2.7-3.2 2.6 0 1.7-1.2 1.8-2.8.2-.9-.9-1.2-.8-1.2.5 0 1-.7 3.1-1.5 4.7-.9 1.7-1.1 3-.5 3 .5 0 .9 1.7.9 3.7-.1 2.1-.3 3-.6 2-.9-3.6-2.3-1.5-2.3 3.5 0 5.3 1.4 5.7 2.3.8.3-1.6.5-1 .6 1.7 0 2.5-.4 4.3-1 4.3-1.2 0-.5 3 2.2 8.2 1 2.1 1.4 3.8.8 3.8-.6 0-.6.6 0 1.9.6 1 .7 2.1.4 2.5-.4.3.2.6 1.3.5 1-.1 3.1-.1 4.6-.1 2.4.2 2.7.6 2.5 3.2-.2 3.2-1.1 3.9-2.1 1.5-.3-.8-1-1.5-1.6-1.5-.6 0-.8.4-.5 1 .3.5.1 1-.6 1-2.5 0-10.8-10.1-13-15.8-1.8-4.8-2-7.1-1.6-14.7.3-5.7 1.2-10.7 2.5-13.6 3.6-8.2 16.7-20.7 24.2-23 3-.9 19.2-1.1 21.4-.3zm215.5 4.4c1.1 2.2.9 2.1-1.3-.5-1.4-1.7-2.5-3.4-2.6-3.8 0-1.3 2.5 1.6 3.9 4.3zm-211.9-.6c0 .5-.3.6-.7.3-.3-.4-1.2.1-1.9 1-1.1 1.5-1.7 1.6-4.6.5-1.9-.6-4.8-1.3-6.4-1.4-2.1-.1-1.7-.3 1.6-.8 6.3-.9 12-.7 12 .4zm174.3.1c-.3.9-.8 1.4-1 1.1-.3-.3-.2-.9.2-1.5.9-1.6 1.5-1.3.8.4zm14.7-.9c0 .3-1.3 3.4-3 6.9-3.3 6.8-3.3 12.5-.1 12.5 1.3 0 1.3.2.3.9-1 .6-.3 1 2.2 1.5 3.5.7 5.1 2.6 2.1 2.6-.8 0-1.5-.5-1.5-1 0-.6-.7-1-1.6-1-1.4 0-1.4.3-.4 1.5 1.5 1.8.9 1.9-2.2.4-3.1-1.3-6.8-6.9-7.2-10.5-.3-3.1 1.2-6.5 4.1-10 2.7-3 7.3-5.5 7.3-3.8zm6.6.9c1 .8 1.5 1.5 1 1.5s-.3.7.4 1.5c.7.9 1 1.9.6 2.2-.4.4-1.1.1-1.6-.6-.4-.8-1.8-1.5-3.1-1.6-1.3-.1-2.5-.8-2.7-1.5-.4-1 .4-1.2 2.9-.7l3.4.6-3-1.4c-1.6-.8-2.3-1.4-1.4-1.5.8 0 2.4.7 3.5 1.5zm26.3 4.7l-.2 6.3-.6-5.2c-.8-6.2-1.1-6.6-4.4-5.4-2.1.8-2.5.7-2-.4.3-.9 1.9-1.5 3.9-1.5h3.4l-.1 6.2zm-236.2-2.4c-.9.2-1.5.7-1.2 1.2.9 1.4-1.4 2.2-3.2 1.1-1.5-.8-1.5-1.1-.3-1.2.8-.1.2-.5-1.5-.9-2.4-.6-1.8-.7 2.5-.7 3 .1 4.7.3 3.7.5zm231.3 3.1c0 4.5-2.5 6.5-2.8 2.2-.1-2.1 0-2.3.9-1.1.8 1.2.9 1 .4-.7-.6-2.1 0-4.3 1.1-4.3.2 0 .4 1.8.4 3.9zm2.7 1.3c-.8 7.7-3.5 12.6-5.2 9.8-.8-1.3.4-5.2 1.5-4.5 1 .6 2-2.9 2-7.3 0-1.7.5-3.2 1.1-3.2.8 0 1 1.7.6 5.2zm-223.4-2.5c4.2.8 4 1.9-.4 1.5-2.1-.2-3.9-.8-3.9-1.2 0-.5-.8-1.1-1.7-1.3-2-.5 1.7.1 6 1zm-17.3-.3c0 .2-.9.6-2 .9-1.1.3-2 .1-2-.4s.9-.9 2-.9 2 .2 2 .4zm32.5.6c.3.6-.1.7-.9.4-1.8-.7-2.1-1.4-.7-1.4.6 0 1.3.4 1.6 1zm158.5 0c0 .5-.5 1-1.1 1-.5 0-.7-.5-.4-1 .3-.6.8-1 1.1-1 .2 0 .4.4.4 1zm22 4.2c0 1.1-2.7 1-3.4-.1-.4-.5-.3-1.7.1-2.7.6-1.6.7-1.6 2 .2.7 1 1.3 2.1 1.3 2.6zm-216-1.5c-.8.3-2.1 1-2.8 1.6-.9.7-1.1.6-.6-.7.3-.9 1.6-1.6 2.8-1.5 1.4 0 1.6.2.6.6zm22 .3c2 .6 2.1.8.5.8-1.1 0-2.9-.3-4-.8-2.5-1.1.1-1.1 3.5 0zm13.4.1c.9-.8 1.6-.9 1.6-.3 0 1.2-2.9 2.4-4.1 1.6-.5-.3-.9-1.1-.9-1.7 0-.8.4-.7.9.2.8 1.2 1.2 1.2 2.5.2zm157.6 1c0-.8.2-1.2.5-.9.3.3.2 1.3-.1 2.2-.5 1.4-.9 1.5-1.5.4-.5-.7-.9-1.8-.9-2.3 0-.6.5-.3 1 .5.8 1.2 1 1.2 1 .1zm-166 2.5c0 .8-.4 1.2-1 .9-.5-.3-1-1-1-1.6 0-.5.5-.9 1-.9.6 0 1 .7 1 1.6zm6 2.5c0 1.8-2.6 3.3-4.1 2.3-1.3-.8-1.1-1.7.8-4.1 1.8-2.3 3.3-1.5 3.3 1.8zm-16.1 1.4c.9 1 .9 3.5 0 2.9-.5-.3-.6-1.1-.2-1.7.4-.7 0-.7-1 .1-.9.8-2.1 1.1-2.7.7-2.3-1.4-5 .6-5 3.7 0 2.6-.2 2.9-1.5 1.8-1.2-1-1.8-1-3.1.1-1.4 1.2-1.4 1.4.3 2 1.3.6 1 .8-1.4.8-1.7.1-3.4.5-3.8 1.1-1.3 2.1-1.2 8.7.3 12.1 1.4 3.2 1.9 3.6 5 3.5 1.9-.1 3.7.4 3.9 1 .2.6-1 .8-3.2.6-4.1-.5-4.3 0-1.3 2.8 2.7 2.5.9 2.6-4 .1-4.3-2.2-6.1-5.4-6.9-12.2-.8-6.8.3-11.1 4-15.3 4.1-4.7 9.4-6.6 15.5-5.5 2.5.5 4.8 1.1 5.1 1.4zm228.1.2c0 1-.5 2.5-1 3.3-.7 1.1-1 .7-1-1.8 0-1.7.5-3.2 1-3.2.6 0 1 .8 1 1.7zm-204.8 2c-.6 1-.8 3-.5 4.4.3 1.5 0 2.9-.5 3.3-.6.3-.9-.2-.8-1.1.2-1 .1-1.2-.1-.6-.3.7-.9 1.3-1.5 1.3s-.7-.7-.3-1.8c.4-.9 1-2.8 1.3-4.2.5-2.3 2.2-4.3 3-3.5.2.2-.1 1.2-.6 2.2zm-3.8-.1c.3.9.1 2.3-.4 3.2-.9 1.4-1 1.2-.4-.7.4-1.6.3-2.1-.5-1.7-.6.4-1.1 0-1.1-.8 0-2.1 1.6-2.1 2.4 0zm158.3.6c0 .7.3 2 .5 2.8.3.8.3 1.1 0 .6-.2-.4-.8-.3-1.2.4-.5.8-.9.7-1.3-.5-.5-1.1-.3-1.4.5-.9.7.5.9.2.5-.8-.3-.9-.3-1.9 0-2.2.9-.8 1-.8 1 .6zM354 579.5c0 .5-.5.3-1-.5s-1-2-1-2.5c0-.6.5-.3 1 .5s1 1.9 1 2.5zm7.6-.8c-1 1-1.9-.5-1-1.8.6-1.1.8-1.1 1.2 0 .2.7.1 1.5-.2 1.8zm198.4-1.3c0 .3-.4.8-1 1.1-.5.3-1 .1-1-.4 0-.6.5-1.1 1-1.1.6 0 1 .2 1 .4zM338 579c0 .5-.5 1-1.1 1-.5 0-.7-.5-.4-1 .3-.6.8-1 1.1-1 .2 0 .4.4.4 1zm221.1 4c.6 0 .4.7-.5 1.5-1.9 2-4.2 1.9-5-.1-.9-2.4-.7-2.7 1-1.4 1.3 1.1 1.6 1 2.2-1.1.5-1.9.7-2 1-.7.2 1 .8 1.8 1.3 1.8zm2.6.2c-.3.7-.5.2-.5-1.2s.2-1.9.5-1.3c.2.7.2 1.9 0 2.5zM340.5 582c.3.6-.4 1-1.7 1-1.8 0-2-.2-.8-1 1.9-1.2 1.8-1.2 2.5 0zm-36.6 1.6c.4-.3.5 1.1.3 3-.5 4.3-.8 4.1-1.5-1.1-.3-2.2-.3-3.4 0-2.7.2.6.8 1 1.2.8zm58.5.2c-.6.4-1.3 1.5-1.7 2.4-.9 2.4-3.3 2.3-4-.2-.3-1.1-.1-2 .4-2s.9.8 1 1.7c0 1.4.2 1.5.6.3.7-1.8 3.6-4 4.3-3.4.2.3 0 .8-.6 1.2zm152.6-1.4c0 .3-.4.8-1 1.1-.5.3-1 .1-1-.4 0-.6.5-1.1 1-1.1.6 0 1 .2 1 .4zm-173.1 7.3c.1 1.3-.3 2.3-.9 2.3-.5 0-1-1.9-.9-4.3 0-3.2.2-3.7.9-2.2.5 1.1.9 3 .9 4.2zm183.4-1.3c4 2.4 3.5 3.3-1.7 3.2-1.7-.1-3.1-.7-3.3-1.6-.4-1.2-.3-1.3.5-.1.5.7 1.5 1 2.1.7 1.7-1.1 1.3-2.2-1.1-3.4-1.3-.6-1.8-1.1-1.3-1.1.6 0 2.7 1 4.8 2.3zm27.1 1.5c-.1 1.7.2 3.1.7 3.1.5 0 .9.4.9.9 0 1-5.5.9-6.6-.2-.4-.4.3-.7 1.5-.7 2.2 0 2.3-.1.7-2.5-2.1-3.1-2.1-4.1 0-2 2.1 2 3.1 1.1 1.3-1.1-1.2-1.5-1.2-1.7.1-1.2 1 .3 1.4 1.7 1.4 3.7zm-214.4.2c0 1-.4 1.9-1 1.9-.5 0-1-1.2-1-2.6 0-1.4.4-2.3 1-1.9.6.3 1 1.5 1 2.6zm219.5-.1c-1.6 3.2-2.8 4-2 1.5.3-.8.7-2.2 1-3 .2-.8.9-1.5 1.5-1.5s.4 1.2-.5 3zm-193.8 2.7c-.3 1-.5.4-.5-1.2 0-1.7.2-2.4.5-1.8.2.7.2 2.1 0 3zm183.8-2.6c1.1 1.7-.1 2.1-1.5.4-.8-.9-.8-1.5-.2-1.5.6 0 1.4.5 1.7 1.1zm-188.6 2.1c.3-.6.7 1.6.7 4.9 0 4.4-.3 5.9-1.4 5.9-1 0-1.2-.6-.7-1.8.4-.9.9-2.6 1.2-3.7.4-1.6.3-1.7-.6-.5-.5.8-1.3 1.1-1.8.7-.4-.5-.2-1.2.5-1.6.7-.4 1.1-1.9.9-3.2-.2-1.3-.2-1.8 0-1 .4.9.7 1 1.2.3zm152.9.8c-.1 1.6-.6 3-1.1 3-.4 0-.5.6-.1 1.2.4.7.3 1-.1.5-1.2-1.1-1.4-4.7-.2-4 .6.4.8 0 .4-.9-.5-1.4 0-2.8 1-2.8.2 0 .2 1.3.1 3zm-208.1 2.7c-.3 1-.5.4-.5-1.2 0-1.7.2-2.4.5-1.8.2.7.2 2.1 0 3zm35.3-.4c0 .7-.7 2.2-1.5 3.3-1.4 1.8-1.4 1.8-1.5-.7 0-1.4.3-2.9.7-3.2 1.1-1.1 2.3-.8 2.3.6zm3 .4c0 .5-.5 1.5-1 2.3-.8 1.2-1 1.1-1-.8 0-1.2.5-2.2 1-2.2.6 0 1 .3 1 .7zm41.2 1.8c1 1.4-1.1 3.5-3.6 3.5-2.1-.1-2-.1.2-1.4l2.3-1.2-2.3-1.2-2.3-1.1 2.5.2c1.4.1 2.8.6 3.2 1.2zm-21.5 1.7c-.3.8-.6.5-.6-.6-.1-1.1.2-1.7.5-1.3.3.3.4 1.2.1 1.9zm25.3-.8c0 .3-.4.8-1 1.1-.5.3-1 .1-1-.4 0-.6.5-1.1 1-1.1.6 0 1 .2 1 .4zm2.5.6c.3.5.1 1-.4 1-.6 0-1.1-.5-1.1-1 0-.6.2-1 .4-1 .3 0 .8.4 1.1 1zm-85.3 2.7v4.3c-.2 2.4-.1 2.4 1.3-.5l1.4-3-.6 2.9c-.4 2-.3 2.7.6 2.2.6-.4 1.4 0 1.7.8.3.9 1.2 1.6 2 1.6s1.4.7 1.4 1.6c0 1.2.7 1.5 2.5 1.2 1.3-.3 2.2-.2 1.9.3-.2.4.3 1.2 1.2 1.7 1.2.6.8.9-1.6.9-2 0-2.6-.3-1.8-.9.9-.5 1-.8.1-.8-.6 0-1.5.4-1.8 1-.3.5-1.3 1-2.2 1-1.2 0-1.3-.3-.4-1.4.9-1.1.6-1.8-1.5-3.5-1.5-1.2-3.3-2.1-4-2.1-.8 0-1.4-1-1.4-2.3 0-1.2-.3-3.2-.6-4.5-.4-1.3-.2-2.2.5-2.2.6 0 1.2.8 1.3 1.7zm51.8-.2c0 .8-.7 1.5-1.5 1.5-.9 0-1.2-.6-.9-1.5.4-.8 1-1.5 1.5-1.5s.9.7.9 1.5zm168.7-.9c-.3.3-1.2.4-1.9.1-.8-.3-.5-.6.6-.6 1.1-.1 1.7.2 1.3.5zm5.6.1c-.7.2-2.1.2-3 0-1-.3-.4-.5 1.2-.5 1.7 0 2.4.2 1.8.5zm10.4-.1c-.3.3-1.2.4-1.9.1-.8-.3-.5-.6.6-.6 1.1-.1 1.7.2 1.3.5zm-202 2.3c-.6.7-1.3.9-1.4.4-.4-1.2-5.3-.5-5.3.7 0 1.4-5.4 1.8-7.1.6-1.4-.9-1-1.2 2.4-1.2 2.3-.1 4.3-.7 4.5-1.3.2-.7 2-1 4.2-.9 3.1.2 3.6.6 2.7 1.7zm45 .3c-.3.8-.6.5-.6-.6-.1-1.1.2-1.7.5-1.3.3.3.4 1.2.1 1.9zm29.3 5c18.2 7.1 21.2 7.2 40.8.3 6.9-2.5 12.9-4.5 13.2-4.5.2 0-2.7 2.1-6.5 4.7-3.9 2.5-7.2 4.9-7.5 5.3-.3.4-2.3 1.5-4.5 2.5-8.8 3.8-8.3 3.2-8.1 9.4.3 8.1-.7 15.4-2.2 15.9-1.5.5-4.2-5.6-4.2-9.3 0-1.7-.4-2.4-1.2-1.9-.8.5-.9 0-.5-1.6.8-3.3-2.1-9-5.2-10.1-1.4-.6-2.8-1.4-3.1-2-.4-.5-2.6-1.1-5.1-1.2-2.4-.2-4.3-.8-4.3-1.3.1-.5-3.2-2.6-7.2-4.6-4-2.1-7.2-3.2-7-2.5.1.7.1.9-.1.5s-1-.6-1.6-.4c-.7.1-.9.1-.4-.1 1.3-.8.8-2.2-1.5-4.3-2.3-2.1-2.3-2.1 3.2.1 3 1.2 8.9 3.5 13 5.1zm105.5-6.2c.3.6-.1.7-.9.4-1.8-.7-2.1-1.4-.7-1.4.6 0 1.3.4 1.6 1zM382 604.5c0 .7.6 1.6 1.3 1.8.7.3.5.6-.5.6-1.8.1-4.2-3.2-3.1-4.2.9-.9 2.3.2 2.3 1.8zm13.4-1c1.6 1.2 1.7 1.7.6 3-.7.8-1.7 1.5-2.2 1.5-.6 0-.5-.7.2-1.5 1.1-1.3 1-1.8-.6-3-1-.8-1.4-1.4-.9-1.4.6 0 1.9.6 2.9 1.4zm-17 2.1c.9 2.4.7 2.7-.9 1-1.7-1.7-1.9-2.6-.6-2.6.5 0 1.2.7 1.5 1.6zm-20.4-.2c0 .2-.7.9-1.5 1.6-1.2 1-1.5 1-1.5-.4 0-.9.7-1.6 1.5-1.6s1.5.2 1.5.4zm1.7 1.8c-.3.8-.6.5-.6-.6-.1-1.1.2-1.7.5-1.3.3.3.4 1.2.1 1.9zm-7.2.7c-.3.6-1.1 1.1-1.6 1.1s-.4-.6.3-1.4c1.4-1.6 2.4-1.3 1.3.3zm-21.7-.2c-1 .2-2.6.2-3.5 0-1-.3-.2-.5 1.7-.5s2.7.2 1.8.5zm53.2 1.4c0 .4-1.1.6-2.4.5-1.3 0-2.2-.4-2-.8.6-.9 4.4-.6 4.4.3zm-36 1.4c-.7.9-1.5 1.3-1.7 1.1-.7-.7.7-2.6 1.9-2.6.6 0 .6.6-.2 1.5zm43-.5c.8.5 1.2 1.1.9 1.4-.3.3-1.4-.1-2.5-.9-2.1-1.6-.8-2 1.6-.5zm-39 1c0 .5-.5 1-1.1 1-.5 0-.7-.5-.4-1 .3-.6.8-1 1.1-1 .2 0 .4.4.4 1zm3.6 2.5c-.6 1.9-1.5 3.5-1.9 3.5-.4 0-2.7.9-4.9 2-2.3 1.1-4.4 1.7-4.7 1.4-.3-.4 0-.9.7-1.1 2.7-1 1-2.2-2.5-1.8l-3.8.5 4-1.1c2.2-.5 5.3-.8 6.9-.6 2.4.3 3.2-.2 4.8-3 1.1-1.8 2.1-3.3 2.2-3.3.2 0-.2 1.6-.8 3.5zm33.4.7c0 1-2.4 1-3.4 0-.4-.4-1.2-.8-1.7-.8-1.8-.3-2-.4-1.5-1.3.7-1 6.6.9 6.6 2.1zm-45.5-1.2c-.3.5-1.1 1-1.6 1-.6 0-.7-.5-.4-1 .3-.6 1.1-1 1.6-1 .6 0 .7.4.4 1zm62.2-.4c-.3.3-1.2.4-1.9.1-.8-.3-.5-.6.6-.6 1.1-.1 1.7.2 1.3.5zm7.3 2.6c0 1.3-2 .9-3.6-.6-2.1-2.1-1.7-2.6 1.1-1.3 1.4.7 2.5 1.5 2.5 1.9zm-62.6-1.6c2.5 1 1.9 2.2-.9 1.6-1.4-.2-2.5-.8-2.5-1.3 0-1 1.2-1.1 3.4-.3zm24.4 1.7c.6.5 1.2 1.3 1.2 2 0 .6-.7.2-1.5-.9-1.3-1.6-1.4-1.6-.9-.2.3 1 .2 1.8-.4 1.8-.5 0-1.2-.9-1.5-1.9-.5-1.9.7-2.2 3.1-.8zm27.2.1c0 .2-.7.7-1.6 1-.8.3-1.2.2-.9-.4.6-1 2.5-1.4 2.5-.6zm-6.7 2.3c4.6 1.6 4.7 1.8 4.5 5.4-.2 2-.6 3.5-1.1 3.2-.4-.2-.4-1.6-.1-3 .7-2.8-.7-4.3-4.3-4.3-1.3 0-2.3-.6-2.3-1.3 0-.8-.4-.7-1 .3-.7 1.2-1 1.2-1 .1 0-.7-.6-1.1-1.5-.8-.8.4-1.6.3-1.9-.1-.9-1.5 3.9-1.2 8.7.5zm-24.3.3c0 .5-.5 1-1.1 1-.5 0-.7-.5-.4-1 .3-.6.8-1 1.1-1 .2 0 .4.4.4 1zm76 2c-.8.5-1.9 1-2.5 1-.5 0-.3-.5.5-1s2-1 2.5-1c.6 0 .3.5-.5 1zm-68.4 1.8c0 1-.6 1.9-1.3 1.9-.8 0-.9-.6-.2-1.9.5-1 1.1-1.8 1.2-1.8.2 0 .3.8.3 1.8zm17.4.7c0 1.1-.6 1-3-.1-1.6-.9-3-1.7-3-1.8 0-.1 1.4-.1 3 .2 1.7.2 3 1 3 1.7zm-54.5-.5c-.3.5-1.7 1-3.1 1-1.3 0-2.4-.5-2.4-1 0-.6 1.4-1 3.1-1 1.7 0 2.8.4 2.4 1zm23.9 2.2c-.5.7-.2.9.9.5s1.4-.2 1.1.8c-.7 1.8-2.8 2.5-4.5 1.4-1.1-.7-1-1.1.6-2.3 2.4-1.9 2.8-2 1.9-.4zm62.9-.5c-.7.2-1.9.2-2.5 0-.7-.3-.2-.5 1.2-.5s1.9.2 1.3.5zm-99.5 1.5c-.3.7-1.8 1.3-3.4 1.4l-2.9.1 3-.5 3-.5-2.5-.7-2.5-.8 2.8-.1c1.9-.1 2.7.3 2.5 1.1zm5.9-.6c-.3.3-1.2.4-1.9.1-.8-.3-.5-.6.6-.6 1.1-.1 1.7.2 1.3.5zm72.8.5c1.1 1.7 0 2-2.1.4-1.7-1.3-1.7-1.4-.2-1.5.9 0 2 .5 2.3 1.1zm-2.4 2.1c2.5 1.4 3.6 6 1.2 5.1-.7-.3-1-1-.7-1.5.4-.6-.4-1.9-1.7-2.9-2.8-2.1-2.2-2.5 1.2-.7zm40.9-.3c0 .6-.4 1.3-1 1.6-.5.3-1-.1-1-.9 0-.9.5-1.6 1-1.6.6 0 1 .4 1 .9zm-78 2.1c0 .5-.2 1-.4 1-.3 0-.8-.5-1.1-1-.3-.6-.1-1 .4-1 .6 0 1.1.4 1.1 1zm18 0c0 .6.8 1 1.8.8.9-.2 1.6.3 1.5.9-.2.7.4 1.3 1.3 1.3s3.7 1.7 6.3 3.8c8.3 6.9 18.4 13.3 29.7 18.8l11.1 5.4-.8 5.7c-.4 3.2-1.2 12.5-1.8 20.7-.9 12.3-1.3 15.1-2.8 16.2-2.8 2.1-3.2 1.7-2.6-2.1.4-2.3 0-4.3-1-5.9-1.7-2.5-2.3-7-1.7-12.1.3-2.6.4-2.4 1 1.5.5 2.6.6.3.3-5.5-.6-10.1-1.7-13.9-3.5-11.3-.7.9-.8.4-.5-1.4.4-2.4.1-2.7-2.2-2.4-1.4.2-2 .1-1.3-.1 1.3-.5 1.7-2.3.4-2.3-.4 0-2.5-1.6-4.5-3.5s-4-3.5-4.5-3.5c-.4 0-1.3-.9-2-2-.7-1.2-1.7-1.8-2.2-1.5-.4.3-1.8-.9-3-2.6-1.3-1.7-2.8-2.8-3.6-2.5-.7.3-1.1 0-.8-.7.2-.7-.6-1.7-1.8-2.2-1.3-.6-2.2-1.6-2.1-2.2.2-.7-.6-1.5-1.7-1.8-1.1-.4-2-1.3-2-2.1s-.7-1.4-1.5-1.4-1.9-.9-2.5-2c-.8-1.5-1.8-1.9-3.3-1.6-1.2.3-1.6.3-.9 0 1-.5 1-.9.1-2-.8-1-.8-1.4 0-1.4.6 0 1.1.5 1.1 1zm-20.7 1.4c1.6 1.2 1.5 1.4-1.2 1.2-1.6-.1-3.3-.5-3.8-.9-.4-.5.1-.5 1.1-.1 1.4.5 1.7.4 1.2-.4-1-1.6.5-1.5 2.7.2zm37.7-.4c0 .5-.2 1-.4 1-.3 0-.8-.5-1.1-1-.3-.6-.1-1 .4-1 .6 0 1.1.4 1.1 1zm15.8 2.9c1 .6.6 1.1-1.7 1.9-1.9.7-3.3.7-3.6.1-.4-.5 0-.9.7-1 .7-.1.2-.5-1.2-.9-2.3-.7-2.2-.8 1-.9 1.9 0 4.1.3 4.8.8zm13.6.6c-.4.9-1.9 1.5-3.5 1.5-3.8 0-3.7-.7.4-1.9 1.7-.5 3.3-1 3.4-1 .1-.1 0 .6-.3 1.4zm10 2c-.4.8-.8 1.5-1 1.5-.2 0-.4-.7-.4-1.5s.4-1.5 1-1.5c.5 0 .7.7.4 1.5zM424 637c0 .5-.5 1-1.1 1-.5 0-.7-.5-.4-1 .3-.6.8-1 1.1-1 .2 0 .4.4.4 1zm-35 1.5c1 1.2 1 1.5-.4 1.5-.9 0-1.6-.7-1.6-1.5s.2-1.5.4-1.5.9.7 1.6 1.5zm43-.4c0 .5.5.7 1 .4.6-.3 1-.2 1 .3 0 .6-.7 1.3-1.6 1.6-.8.3-1.2.2-.9-.4.3-.6-.2-1-1.2-1s-2.5-.5-3.3-1c-1.1-.7-.7-1 1.8-1 1.7 0 3.2.5 3.2 1.1zm-37 1.9c0 .5-.7 1-1.5 1s-1.5-.5-1.5-1c0-.6.7-1 1.5-1s1.5.4 1.5 1zm3.2 3.6c.7.7-.2 4.4-1.1 4.4-.3 0-1.1-1.1-1.8-2.5-1-2.2-.9-2.5.6-2.5 1 0 2 .3 2.3.6zm5.5 4c-.3.3-1.2.4-1.9.1-.8-.3-.5-.6.6-.6 1.1-.1 1.7.2 1.3.5zm-41.8 6.1c.1 1.3.6 2.3 1.2 2.3.7 0 .9-1.5.5-4.3-.5-3.7-.4-3.9.4-1.2 1.1 3.2.5 7.5-.9 7.5-.5 0-.5 1.6 0 3.7s.9 5.4.9 7.4.6 4.2 1.4 4.8c1.2 1 1.3.6 1-2.6-.3-2.1-.1-6.5.5-9.8.9-5.6 1-5.2.8 5.1-.2 9.4 0 11.1 1.3 11 .8-.1 1.5.6 1.5 1.4.1 2.5 1.5 4 3.8 4 1.8 0 1.9.2.7 1s-1.1 1 .8 1c2.1 0 4.1 2.4 2.9 3.6-.6.7-10.7-6.7-10.7-7.8 0-.4-.5-.8-1.1-.8-.6 0-2.3-.9-3.9-2-2.7-1.9-2.8-2.3-3.5-13.9-.7-12.3 0-18.7 1.6-14.6.4 1.1.8 3 .8 4.2zm5.8-2c-.3 1-.5.4-.5-1.2 0-1.7.2-2.4.5-1.8.2.7.2 2.1 0 3zM409 654c0 1.6-.7 2-3.1 2-1.8 0-2.8-.4-2.4-1 .4-.6 1.5-.8 2.6-.5 1.3.4 1.9.2 1.9-.9 0-.9.2-1.6.5-1.6s.5.9.5 2zm17.9 16.7c0 .5-.4 1.7-.9 2.8-.8 1.8-.9 1.7-.9-.8-.1-1.5.4-2.7.9-2.7.6 0 1 .3.9.7zM373.5 681c.3.5.1 1-.4 1-.6 0-1.1-.5-1.1-1 0-.6.2-1 .4-1 .3 0 .8.4 1.1 1zm51.2 5.7c-.3 1-.5.2-.5-1.7s.2-2.7.5-1.8c.2 1 .2 2.6 0 3.5zm-56.1 5.5c.5.7-.4.5-1.9-.5-1.4-.9-3.3-1.7-4.2-1.7-.9 0-1.3-.4-1-1 .7-1.1 5.9 1.2 7.1 3.2zM388 689c.8.5 1.1 1.3.6 1.7-.5.4-1.1.2-1.3-.5-.3-.6-1.7-1.2-3.3-1.2-1.6 0-3.1.6-3.3 1.2-.3.8-.6.6-.6-.5-.1-1.3.7-1.7 3.2-1.7 1.7 0 3.9.4 4.7 1zm-3 1.8c0 .5-.7.9-1.5.9s-1.2-.4-.9-.9c.3-.4.9-.8 1.5-.8.5 0 .9.4.9.8zm7 .2c0 .5-.2 1-.4 1-.3 0-.8-.5-1.1-1-.3-.6-.1-1 .4-1 .6 0 1.1.4 1.1 1zm-28.7 3.6c.5 3-.8 2-1.8-1.5-.4-1.5-.3-2.1.3-1.7.5.3 1.2 1.7 1.5 3.2zm62.8 1.4c.5 0 .9 1 .9 2.2-.1 2.3-.1 2.3-1.5-.2-.8-1.4-1.4-3.6-1.3-5 .1-2.4.1-2.4.5.2.2 1.6.9 2.8 1.4 2.8zm-37.8-2.4c-.5 1.3-.2 1.5 1.7.9 1.4-.5 2-.3 1.6.3-.3.6-.1 1.2.6 1.4.7.3.5.7-.6 1.1-1.1.5-1.5.3-1-.5.5-.7.2-.9-.8-.5-.9.3-2.3-.2-3.3-1.3-1.3-1.4-1.3-1.9-.3-2.3 2.3-.9 2.8-.7 2.1.9zm-15.2 1.1c1.3 1.6 1.2 1.7-.3.5-1.3-1-1.7-1-2.1 0-.2.7-.8.9-1.3.5-.6-.6 1-2.5 2.2-2.7.1 0 .8.8 1.5 1.7zm-5.6.1c-.5.4-1.1 2-1.3 3.7-.4 3.5-3.2 7.2-3.2 4.2 0-.9.5-1.7 1.1-1.7.8 0 1-1.2.6-3.5-.5-3.1-.3-3.5 1.6-3.5 1.2 0 1.8.4 1.2.8zm31 2.8c-1.9 1.4-2 2.8-.1 2.1 1-.4 1.3-.1 1 .8-.5 1.2-1 1.1-3.2-.3-2.3-1.5-2.4-1.7-.8-2 1.4-.3 1.6-.6.6-1.2-.8-.5-.3-.8 1.4-.7 2.2.2 2.4.4 1.1 1.3zm-17.4 3.1c1.3 1.6 1.2 1.7-.3.4-1.7-1.3-2.2-2.1-1.4-2.1.2 0 1 .8 1.7 1.7zm-13.4 1.5c-.3.8-.6.5-.6-.6-.1-1.1.2-1.7.5-1.3.3.3.4 1.2.1 1.9zm11.8-.2c.3.6-.1.7-.9.4-1.8-.7-2.1-1.4-.7-1.4.6 0 1.3.4 1.6 1zm-13.1 6.2c-.3 3.4-.1 3.9.7 2.3.8-1.7.9-1.7.3.5-.3 1.4-.9 4.1-1.4 6-.8 3.5-.8 3.5-.7-1 0-2.5-.2-5.5-.7-6.8-.4-1.3-.3-2.2.3-2.2s.8-.7.5-1.5c-.4-.8-.2-1.5.4-1.5.6 0 .9 1.8.6 4.2zm48.2-2.8c.8.8 1.4 2.6 1.4 4 0 2.4.4 2.6 4 2.6h4l-.2 6.9c-.2 5.7-.4 6.6-1.4 5.2-.7-.9-1.2-2.4-1.2-3.2.3-4.2-.3-5.9-2-5.9-2.1 0-6.2-3.5-6.2-5.3 0-.7-.3-2.2-.6-3.5-.7-2.5.1-2.8 2.2-.8zm-9.8.8c1 1 1.5 1 2.1-.1.6-.9.9-.5.9 1.4v2.6l-2.7-2.3c-1.4-1.3-2.8-2.4-3-2.6-.2-.1 0-.2.5-.2.6 0 1.6.6 2.2 1.2zm-18.3 6.7c-.6.5-2.5-1-2.5-2 0-.5.6-.4 1.4.3.8.7 1.2 1.5 1.1 1.7zM414 715c0 1.5-.5 1.2-2.6-1.1-1.9-2.2-1.9-2.2.4-1 1.2.6 2.2 1.6 2.2 2.1zm-46.3 3.2c-.3.7-.5.2-.5-1.2s.2-1.9.5-1.3c.2.7.2 1.9 0 2.5zm27.9 7.5c-.9.9-3.6-1.8-3.6-3.5 0-1.2.5-1.1 2.1.7 1.2 1.2 1.8 2.5 1.5 2.8zm-27.7 2.3c.1 1.3 0 1.3-.9 0-.5-.8-.9-2.6-.9-4l.1-2.5.8 2.5c.4 1.4.8 3.2.9 4zm64.3.2c-.6.6-.7 0-.4-1.9.5-2.1.7-2.3 1-.9.2 1 0 2.2-.6 2.8zM394 727c0 .5-.4 1-1 1-.5 0-1-.5-1-1 0-.6.5-1 1-1 .6 0 1 .4 1 1zm6.7 2.2c-.3.8-.6.5-.6-.6-.1-1.1.2-1.7.5-1.3.3.3.4 1.2.1 1.9zm28.8 1.8c1 1.1 1.4 2 .9 2-.5 0-1.5-.9-2.2-2-.7-1.1-1.1-2-.9-2 .2 0 1.2.9 2.2 2zm-61.5 2c0 .5-.4 1-1 1-.5 0-1-.5-1-1 0-.6.5-1 1-1 .6 0 1 .4 1 1zm35.4.6c.9 2.4.7 2.8-.9 1.4-1.7-1.4-2-3-.6-3 .5 0 1.2.7 1.5 1.6zM375.8 746c.3.8 0 1-.8.5-.9-.6-1-.1-.5 1.6.4 1.3.6 2.2.4 1.9-.2-.3-1.3-1.5-2.4-2.8-1.8-2.2-1.8-2.3 0-1.6 1.3.6 1.6.4 1-.6-.5-.8-.3-1.1.5-.8.8.2 1.6 1 1.8 1.8zm35.2 3.5c0 1.5-.6 2.5-1.4 2.5-1.1 0-1.2-.5-.3-2.5 1.5-3.1 1.7-3.1 1.7 0zm-35 10.2c0 1.3-2.9 3.2-3.5 2.3-.3-.5-.1-1 .5-1s.9-.4.6-.8c-.3-.5.1-.9.9-.9s1.5.2 1.5.4zm-.7 4.8c-.3.9-.8 1.4-1 1.1-.3-.3-.2-.9.2-1.5.9-1.6 1.5-1.3.8.4zm.3 7.2c-.3.4-.6.1-.6-.6s-.4-.9-1-.6c-.6.4-.7-.1-.3-1.1.6-1.5.7-1.5 1.5.1.6.9.7 1.9.4 2.2zm7.9 5.3c-.3.5-1 1-1.6 1-.5 0-.9-.5-.9-1 0-.6.7-1 1.6-1 .8 0 1.2.4.9 1zm-4.8 2.2c-.3.8-.6.5-.6-.6-.1-1.1.2-1.7.5-1.3.3.3.4 1.2.1 1.9zm2.4 4.8c.5.3.5 1.7.2 3l-.7 2.5-.7-2.5c-.9-3.1-1-7.2-.2-5 .3.8 1 1.7 1.4 2zm2.9-.8c0 1.6-.3 1.9-1.1 1.1-.6-.6-.8-1.6-.5-2.2 1.1-1.7 1.6-1.3 1.6 1.1zm42.5 7.8c.3.5.1 1-.4 1-.6 0-1.1-.5-1.1-1 0-.6.2-1 .4-1 .3 0 .8.4 1.1 1z"/><path d="M587.5 83.7c-36.3 25-52.4 38.9-65.1 56-5.6 7.5-6.2 9.1-4.2 11.1 2.1 2.1 4.2 1.2 7-3.1 6.7-10.6 19.2-24 30.6-33 11-8.8 29.3-22.2 35.5-26.2l2.8-1.8-.1 16.9c0 9.3-.1 17.9 0 19.2 0 1.8.5 2.3 2.2 2 3.1-.4 3.5-4 3.4-27.3-.1-22.7.2-22.3-12.1-13.8zM125.1 157.4c-1.5 2.7-2 24-.8 29.8.4 2.1 1.4 3.8 2.1 3.8 1.8 0 2.6-4.5 2.6-15.4 0-10.1.6-13.6 2.5-13.6 2.9 0 21.8 10.7 30.4 17.2 5.1 4 15.6 13.4 23.3 21 11.4 11.3 14.2 13.7 15.4 12.7.8-.6 1.4-1.8 1.4-2.7 0-2-25.3-27-35.2-35-8.8-6.9-22.2-14.5-31.6-17.9-7.8-2.9-8.6-2.9-10.1.1zM448.5 228.4c-3.7 1.7-8 6.2-9.4 9.9-1.6 4.3-1.3 11.8.7 15.6.9 1.9 3.4 4.8 5.5 6.5 3.1 2.5 4.9 3.1 10 3.4 7.3.4 11.5-1.5 16.2-7.2 2.7-3.4 3-4.4 3-11.1 0-6.7-.3-7.7-3.1-11.2-1.7-2.1-4.6-4.6-6.5-5.5-4-2.1-12.1-2.3-16.4-.4zM300.2 261.1c-6.5 3.3-9.7 8.7-9.7 16.4 0 5.1.5 6.9 2.8 10.4 9.4 14.3 31.8 8.3 33.5-8.9 1.3-14.1-13.9-24.4-26.6-17.9zM400 271.7c-28.6 2.7-54.9 13.9-74.7 31.7-5.5 4.9-14.1 16-18.6 23.7-2.4 4.3-7.7 20.3-7.7 23.5 0 3.2 1.8 1 3.4-4.4 3.9-12.4 10.9-23.4 22.4-35.5 6.7-6.9 9.9-8.9 6.3-3.8-5.4 7.5-4.7 21.8 1.2 27.4 1.7 1.6 4.9 3.8 7.1 4.9 4.8 2.5 10.5 2.1 28.4-1.8 14.4-3.1 27.7-4.1 31.2-2.2 2.9 1.5 6 7.3 6.7 12.7.5 3.7.4 3.9-5.3 7.7-18.1 12.1-43.8 20.6-62.9 20.7-12.2.1-16.7-1.2-19.5-5.9-2.4-3.7-3.6-4.1-6.5-2-3 2.2-.6 6.2 5.2 8.9 4.3 2 6.3 2.2 20.8 2.2 13.5-.1 17.3-.4 24.5-2.4 15.7-4.2 35.6-13.5 45-21 3.4-2.7 4-2.8 10.6-2.4 10.8.8 36.1-1.5 46.1-4.1 10.2-2.7 18.3-6.5 21.1-10 4.7-6 5.4-13.6 1.2-13.6-1.4 0-2.2 1.1-2.9 3.8-.6 2.1-2.3 5-3.8 6.4-4.3 4.1-19.6 10.7-27.2 11.8-10.5 1.5-30.2 2.3-36.3 1.6l-5.6-.7-1.2-6.4c-1.4-7.6-.8-11 2.8-14.8 3-3.2 7.1-4.4 18.4-5.7 11.2-1.3 16.8-3.4 22.4-8.3 6-5.3 8.3-10.4 8.4-18.4V289l4.9 3c4.8 3 7.1 3.7 7.1 2.2 0-3-19.4-15.6-28.3-18.4-11.4-3.6-31.3-5.4-44.7-4.1zM448.5 419.6c-14.8 5.3-32.8 8.4-50.2 8.7-5.5.1-8.8.6-9 1.4-.5 1.5 2.6 2.4 11.7 3.3 4.1.4 6.7.8 5.8.9-1 0-1.8.5-1.8 1.1 0 .5 3.9 1.1 8.8 1.2l8.7.3-7.5 1.4c-4.1.7-8.2 1.7-9 2.1-2.4 1.4 1.1 2.3 7 1.8 2.7-.1 5 0 5 .4 0 .5 2.1.8 4.8.9 2.6 0 4.1.3 3.4.6-1.8.7-.4 2.3 2.1 2.4 2.1 0 2.1.1-.3 1.1-3.3 1.3-1 2.2 3.6 1.4 3.4-.7 4.4-2 2.2-2.9-.8-.3-.6-.6.4-.6 2.5-.1 6.8-2.3 6.8-3.4 0-.6-1.8-.7-4.2-.4l-4.3.7 3.8-1.6c5.1-2.2 4.8-3.8-.5-3l-4.3.6 5.3-2.5c3.2-1.5 5.1-2.9 4.7-3.6-.4-.6.3-1.7 1.5-2.6 1.2-.8 1.9-2.1 1.6-2.9-.3-.8 0-1.4.7-1.4 2.7 0 11.7-5 11.7-6.5 0-1.9 0-1.9-8.5 1.1zm-16.8 10c-.3.3-1.2.4-1.9.1-.8-.3-.5-.6.6-.6 1.1-.1 1.7.2 1.3.5zm-6.1 1.4c-1.6.5-6.1 1.1-10 1.4l-7.1.5 7.5-1.3c4.1-.7 8.6-1.3 10-1.4 2.3 0 2.3 0-.4.8zM405.5 481c-.4.6-.1 1.8.6 2.7.8.8 1.2 2.8 1.1 4.4-.3 2.2.3 3.1 2.7 4.3 3.3 1.8 8.7 2.1 9.6.7.3-.5-1.1-1.5-3-2.2-4.1-1.5-4.5-3.1-1-4.7 3.3-1.5 3.2-3-.2-3.8-1.6-.3-4.1-1-5.7-1.5-3.6-1.1-3.3-1.1-4.1.1zM423 500.2c0 5.1 1.3 6.8 5.2 6.8 3.1 0 7.8-1.9 7.8-3.2 0-.4-2-.8-4.5-.8-4.2 0-4.5-.2-5.3-3.2-1.3-5-3.2-4.7-3.2.4zM561 550c0 .5.5 1 1.1 1 .5 0 .7-.5.4-1-.3-.6-.8-1-1.1-1-.2 0-.4.4-.4 1zM305.2 618c.5 1.5 5.8 2.3 5.8.9 0-.5-.6-.9-1.4-.9-.8 0-2.2-.3-3.2-.7-1.1-.4-1.5-.2-1.2.7zM337 559c.8.5 2.2.9 3 .9 1 0 .8-.3-.5-.9-2.7-1.2-4.3-1.2-2.5 0zM559.1 573.6c0 1.1.3 1.4.6.6.3-.7.2-1.6-.1-1.9-.3-.4-.6.2-.5 1.3zM350.3 571.5c-.7.8-.9 1.6-.4 1.9.5.3 1.2-.1 1.5-1 .8-2.2.4-2.5-1.1-.9zM425.1 780.7c-.1 1.8.4 3.3.9 3.3 1.2 0 1.2-1.7 0-4.5-.7-1.7-.9-1.5-.9 1.2z"/></svg>